<svg xmlns="http://www.w3.org/2000/svg" width="237.39" height="1079.621" viewBox="0 0 237.39 1079.621"><defs><style>.a{fill:#ffc700;}.b{fill:#2d3652;}.c{fill:#6ed47c;}.d{fill:#ff743c;}.e{fill:#d5e155;}</style></defs><g transform="translate(-1140.69 -21.379)"><g transform="translate(1140.69 21.379)"><path class="a" d="M1383.094,383.094h0A183.092,183.092,0,0,1,1200,200h183.094Z" transform="translate(-1145.704 -36.479)"/><path class="b" d="M1383.094,783.784A183.092,183.092,0,0,1,1200,600.69h183.094Z" transform="translate(-1145.704 -70.35)"/><path class="b" d="M1380.094,82h-91.547A91.546,91.546,0,0,0,1197,173.547h91.547A91.546,91.546,0,0,0,1380.094,82Z" transform="translate(-1145.45 -26.504)"/><path class="c" d="M1200,1166.877V983.784A183.092,183.092,0,0,1,1383.094,800.69h0V983.784A183.09,183.09,0,0,1,1200,1166.877Z" transform="translate(-1145.704 -87.256)"/><path class="b" d="M1300,983.152v-90.77a91.618,91.618,0,0,1,91.547-91.691h0v90.77A91.619,91.619,0,0,1,1300,983.152Z" transform="translate(-1154.157 -87.256)"/><path class="d" d="M1140.69,794.928A54.926,54.926,0,0,1,1195.618,740h0a54.926,54.926,0,0,1,54.928,54.928h0a54.926,54.926,0,0,1-54.928,54.928h0a54.926,54.926,0,0,1-54.928-54.928Z" transform="translate(-1140.69 -82.126)"/><path class="a" d="M1171.03,797.809a27.469,27.469,0,0,1,27.464-27.464h0a27.464,27.464,0,0,1,27.464,27.464h0a27.464,27.464,0,0,1-27.464,27.464h0a27.469,27.469,0,0,1-27.464-27.464Z" transform="translate(-1143.255 -84.691)"/><path class="c" d="M1222.07,48.843a27.464,27.464,0,0,1,27.464-27.464h0A27.463,27.463,0,0,1,1277,48.843h0a27.463,27.463,0,0,1-27.464,27.464h0a27.464,27.464,0,0,1-27.464-27.464Z" transform="translate(-1147.569 -21.379)"/><path class="e" d="M1318.62,48.843a27.464,27.464,0,0,1,27.464-27.464h0a27.463,27.463,0,0,1,27.464,27.464h0a27.463,27.463,0,0,1-27.464,27.464h0a27.464,27.464,0,0,1-27.464-27.464Z" transform="translate(-1155.731 -21.379)"/><path class="d" d="M1162.07,386.774a27.464,27.464,0,0,1,27.464-27.464h0A27.463,27.463,0,0,1,1217,386.774h0a27.463,27.463,0,0,1-27.464,27.464h0a27.464,27.464,0,0,1-27.464-27.464Z" transform="translate(-1142.497 -49.945)"/><path class="d" d="M1383.094,491.547A91.546,91.546,0,0,0,1291.547,400h0A91.546,91.546,0,0,0,1200,491.547h0a91.546,91.546,0,0,0,91.547,91.547h91.547Z" transform="translate(-1145.704 -53.385)"/><path class="a" d="M1391.255,543.9a47.354,47.354,0,0,0-47.357-47.351h0A47.352,47.352,0,0,0,1296.55,543.9h0a47.353,47.353,0,0,0,47.348,47.353h47.357Z" transform="translate(-1153.865 -61.547)"/></g></g></svg>