<svg xmlns="http://www.w3.org/2000/svg" width="1133.969" height="1080" viewBox="0 0 1133.969 1080"><defs><style>.a{fill:#ff743c;}.b{fill:#f0f1f1;}.c{fill:#d5e155;}.d{fill:#2d3652;}.e{fill:#6ed47c;}.f{fill:#ffc700;}</style></defs><g transform="translate(0 0)"><g transform="translate(0 0)"><path class="a" d="M779.9,800.69A179.9,179.9,0,0,1,600,980.587V800.69Z" transform="translate(-60.31 -80.483)"/><path class="a" d="M579.9,1180.587A179.9,179.9,0,0,1,400,1000.69H579.9Z" transform="translate(-40.207 -100.587)"/><path class="b" d="M179.9,179.9h0A179.9,179.9,0,0,1,0,0H179.9Z" transform="translate(719.587 1080) rotate(-90)"/><path class="a" d="M0,980.587H0a179.9,179.9,0,0,1,179.9-179.9h0v179.9Z" transform="translate(0 -80.483)"/><path class="c" d="M1000,400.69a179.9,179.9,0,0,1,179.9,179.9H1000Z" transform="translate(-100.517 -40.276)"/><path class="a" d="M0,0A179.9,179.9,0,0,1,179.9,179.9H0Z" transform="translate(539.69 0) rotate(90)"/><path class="d" d="M579.9,980.587h0A179.9,179.9,0,0,1,400,800.69H579.9Z" transform="translate(-40.207 -80.483)"/><path class="e" d="M589.74,892.5h0a91.808,91.808,0,0,1-91.809-91.809H589.74Z" transform="translate(-50.051 -80.483)"/><path class="c" d="M179.9,1180.587h0A179.9,179.9,0,0,1,0,1000.69H179.9Z" transform="translate(0 -100.587)"/><path class="d" d="M189.74,1092.5h0a91.811,91.811,0,0,1-91.809-91.81H189.74Z" transform="translate(-9.844 -100.587)"/><path class="e" d="M779.9,1180.587h0A179.894,179.894,0,0,1,600,1000.69H779.9Z" transform="translate(-60.31 -100.587)"/><path class="c" d="M789.74,1092.5h0a91.81,91.81,0,0,1-91.809-91.81H789.74Z" transform="translate(-70.154 -100.587)"/><path class="c" d="M189.948,400.69v89.948A89.949,89.949,0,0,1,100,580.587V490.638A89.949,89.949,0,0,1,189.948,400.69Z" transform="translate(-10.052 -40.276)"/><path class="d" d="M289.948,580.587V490.638A89.949,89.949,0,0,0,200,400.69h0v89.948a89.949,89.949,0,0,0,89.948,89.948Z" transform="translate(-20.103 -40.276)"/><path class="e" d="M89.948,500.69v89.948A89.949,89.949,0,0,1,0,680.587H0V590.638A89.949,89.949,0,0,1,89.948,500.69Z" transform="translate(0 -50.328)"/><path class="d" d="M600,489.948h89.948A89.949,89.949,0,0,0,779.9,400H689.948A89.949,89.949,0,0,0,600,489.948Z" transform="translate(-60.31 -40.207)"/><path class="e" d="M500,589.948h89.948A89.949,89.949,0,0,0,679.9,500H589.948A89.949,89.949,0,0,0,500,589.948Z" transform="translate(-50.259 -50.259)"/><path class="a" d="M600,0V179.9a179.9,179.9,0,0,0,179.9,179.9h0V179.9A179.9,179.9,0,0,0,600,0Z" transform="translate(-60.31 0)"/><path class="d" d="M700,200.69v89.185a90.02,90.02,0,0,0,89.948,90.091h0V290.781A90.019,90.019,0,0,0,700,200.69Z" transform="translate(-70.362 -20.173)"/><path class="d" d="M0,360.414V180.207C0,80.682,80.542,0,179.9,0h0V180.207c0,99.524-80.542,180.207-179.9,180.207Z" transform="translate(0 0)"/><path class="e" d="M100,179.276V90.091A90.02,90.02,0,0,1,189.948,0h0V89.185A90.019,90.019,0,0,1,100,179.276Z" transform="translate(-10.052 0)"/><path class="b" d="M379.9-840.9v-179.9A179.9,179.9,0,0,0,200-1200.69h0v179.9A179.9,179.9,0,0,0,379.9-840.9Z" transform="translate(-20.103 1920.896)"/><path class="f" d="M289.948-820.724v-89.185A90.02,90.02,0,0,0,200-1000h0v89.185a90.019,90.019,0,0,0,89.948,90.091Z" transform="translate(-20.103 1720.207)"/><path class="b" d="M379.9,0V179.9A179.9,179.9,0,0,1,200,359.793h0V179.9A179.9,179.9,0,0,1,379.9,0Z" transform="translate(-20.103 0)"/><path class="c" d="M289.948,201.379v89.186A90.021,90.021,0,0,1,200,380.656h0V291.47a90.019,90.019,0,0,1,89.948-90.091Z" transform="translate(-20.103 -20.242)"/><path class="d" d="M1159.793,200H979.9A179.9,179.9,0,0,0,800,379.9H979.9a179.9,179.9,0,0,0,179.9-179.9Z" transform="translate(-80.414 -20.103)"/><path class="b" d="M979.9,300H890.4c-49.928,0-90.4,40.272-90.4,89.948h89.493c49.93,0,90.4-40.272,90.4-89.948Z" transform="translate(-80.414 -30.155)"/><path class="b" d="M1159.793,600.69H979.9A179.9,179.9,0,0,0,800,780.587H979.9a179.9,179.9,0,0,0,179.9-179.9Z" transform="translate(-80.414 -60.38)"/><path class="d" d="M979.276,700.69H890.091A90.02,90.02,0,0,0,800,790.638h89.185a90.019,90.019,0,0,0,90.091-89.948Z" transform="translate(-80.414 -70.431)"/><path class="b" d="M559.793,600.69H379.9A179.9,179.9,0,0,0,200,780.587H379.9a179.9,179.9,0,0,0,179.9-179.9Z" transform="translate(-20.103 -60.38)"/><path class="a" d="M379.276,700.69H290.091A90.02,90.02,0,0,0,200,790.638h89.185a90.019,90.019,0,0,0,90.091-89.948Z" transform="translate(-20.103 -70.431)"/><path class="d" d="M800,800.69H979.9a179.9,179.9,0,0,1,179.9,179.9H979.9A179.9,179.9,0,0,1,800,800.69Z" transform="translate(-80.414 -80.483)"/><path class="e" d="M1000,900.69h89.49c49.93,0,90.407,40.272,90.407,89.948h-89.49c-49.93,0-90.407-40.272-90.407-89.948Z" transform="translate(-100.517 -90.535)"/><path class="a" d="M1140.69,793.969A53.967,53.967,0,0,1,1194.659,740h0a53.967,53.967,0,0,1,53.969,53.969h0a53.967,53.967,0,0,1-53.969,53.969h0a53.967,53.967,0,0,1-53.969-53.969Z" transform="translate(-114.659 -74.383)"/><path class="f" d="M1171.03,797.329a26.99,26.99,0,0,1,26.984-26.984h0A26.984,26.984,0,0,1,1225,797.329h0a26.984,26.984,0,0,1-26.984,26.984h0a26.99,26.99,0,0,1-26.984-26.984Z" transform="translate(-117.709 -77.433)"/><path class="a" d="M719.31,544.226a26.985,26.985,0,0,1,26.984-26.984h0a26.985,26.985,0,0,1,26.984,26.984h0a26.985,26.985,0,0,1-26.984,26.984h0a26.985,26.985,0,0,1-26.984-26.984Z" transform="translate(-72.303 -51.992)"/><path class="e" d="M519.31,447.674a26.985,26.985,0,0,1,26.984-26.984h0a26.985,26.985,0,0,1,26.984,26.984h0a26.985,26.985,0,0,1-26.984,26.984h0a26.985,26.985,0,0,1-26.984-26.984Z" transform="translate(-52.2 -42.287)"/><path class="a" d="M168.452,742.156a26.985,26.985,0,0,1-26.984,26.984h0a26.985,26.985,0,0,1-26.984-26.984h0a26.985,26.985,0,0,1,26.984-26.984h0a26.985,26.985,0,0,1,26.984,26.984Z" transform="translate(-11.508 -71.887)"/><path class="d" d="M73.969,742.156a26.985,26.985,0,0,1-26.984,26.984h0A26.985,26.985,0,0,1,20,742.156h0a26.985,26.985,0,0,1,26.984-26.984h0a26.985,26.985,0,0,1,26.984,26.984Z" transform="translate(-2.01 -71.887)"/><path class="e" d="M168.452,647.674a26.985,26.985,0,0,1-26.984,26.984h0a26.985,26.985,0,0,1-26.984-26.984h0a26.985,26.985,0,0,1,26.984-26.984h0a26.985,26.985,0,0,1,26.984,26.984Z" transform="translate(-11.508 -62.39)"/><path class="a" d="M1162.07,386.294a26.984,26.984,0,0,1,26.984-26.984h0a26.984,26.984,0,0,1,26.984,26.984h0a26.984,26.984,0,0,1-26.984,26.984h0a26.984,26.984,0,0,1-26.984-26.984Z" transform="translate(-116.808 -36.117)"/><path class="a" d="M773.1,946.952A24.193,24.193,0,1,1,797.3,971.145,24.192,24.192,0,0,1,773.1,946.952Z" transform="translate(-77.71 -92.753)"/><path class="a" d="M23.448,447.641a24.193,24.193,0,0,1,24.193-24.193h0a24.193,24.193,0,0,1,24.193,24.193h0a24.192,24.192,0,0,1-24.193,24.192h0a24.192,24.192,0,0,1-24.193-24.192Z" transform="translate(-2.357 -42.564)"/><path class="a" d="M800,489.948A89.949,89.949,0,0,1,889.948,400h0A89.949,89.949,0,0,1,979.9,489.948h0A89.949,89.949,0,0,1,889.948,579.9H800Z" transform="translate(-80.414 -40.207)"/><path class="f" d="M800,543.766a46.525,46.525,0,0,1,46.526-46.525h0a46.525,46.525,0,0,1,46.524,46.525h0a46.525,46.525,0,0,1-46.524,46.526H800Z" transform="translate(-80.414 -49.981)"/><path class="c" d="M1179.9,89.948A89.948,89.948,0,0,0,1089.948,0h0A89.948,89.948,0,0,0,1000,89.948h0a89.948,89.948,0,0,0,89.948,89.948H1179.9Z" transform="translate(-100.517 0)"/><path class="a" d="M1189.6,143.076a46.527,46.527,0,0,0-46.53-46.524h0a46.525,46.525,0,0,0-46.521,46.524h0a46.526,46.526,0,0,0,46.521,46.526h46.53Z" transform="translate(-110.222 -9.705)"/><path class="e" d="M800,89.948A89.949,89.949,0,0,0,889.948,179.9h0A89.949,89.949,0,0,0,979.9,89.948h0A89.949,89.949,0,0,0,889.948,0H800Z" transform="translate(-80.414 0)"/><path class="d" d="M800,46.526A46.525,46.525,0,0,0,846.526,93.05h0A46.524,46.524,0,0,0,893.05,46.526h0A46.525,46.525,0,0,0,846.526,0H800Z" transform="translate(-80.414 0)"/><path class="f" d="M400,289.948A89.949,89.949,0,0,1,489.948,200h0A89.949,89.949,0,0,1,579.9,289.948h0A89.949,89.949,0,0,1,489.948,379.9h0A89.949,89.949,0,0,1,400,289.948Z" transform="translate(-40.207 -20.103)"/><path class="d" d="M444.828,294.765a49.937,49.937,0,0,1,49.937-49.937h0A49.937,49.937,0,0,1,544.7,294.765h0A49.938,49.938,0,0,1,494.765,344.7h0a49.937,49.937,0,0,1-49.937-49.937Z" transform="translate(-44.713 -24.609)"/><path class="a" d="M1000,1090.638a89.946,89.946,0,0,1,89.948-89.948h0a89.946,89.946,0,0,1,89.948,89.948h0a89.947,89.947,0,0,1-89.948,89.948h0A89.947,89.947,0,0,1,1000,1090.638Z" transform="translate(-100.517 -100.587)"/><path class="d" d="M1044.83,1094.079a49.929,49.929,0,0,1,49.93-49.939h0a49.931,49.931,0,0,1,49.939,49.939h0a49.929,49.929,0,0,1-49.939,49.93h0a49.927,49.927,0,0,1-49.93-49.93Z" transform="translate(-105.023 -104.954)"/><path class="c" d="M779.966,690.638c0,49.677-40.133,89.948-89.638,89.948s-89.638-40.272-89.638-89.948,40.132-89.948,89.638-89.948h89.638Z" transform="translate(-60.38 -60.38)"/><path class="a" d="M389.948,580.587A89.948,89.948,0,1,0,300,490.638v89.948Z" transform="translate(-30.155 -40.276)"/></g></g></svg>